# xmcd CD database file
#
# Track frame offsets:
#	150
#	28436
#	47001
#	68748
#
# Disc length: 1219 seconds
#
# Revision: 0
# Processed by: cddbd v1.4PL0 Copyright (c) Steve Scherf et al.
# Submitted via: CDex 1.50beta9
#
DISCID=3304c104
DTITLE=Laurel Tree Music For Therapy - Spirit
DYEAR=2001
DGENRE=New Age
TTITLE0=America The Beautiful - Bridge Over Troubled Water
TTITLE1=Amazing Grace
TTITLE2=You'll Never Walk Alone
TTITLE3=God Bless America
EXTD=YEAR: 2001
EXTT0=
EXTT1=
EXTT2=
EXTT3=
PLAYORDER=
